<svg width="148" height="100" viewBox="0 0 296 200" fill="none" xmlns="http://www.w3.org/2000/svg">
<g clip-path="url(#clip0)">
<path d="M26.7891 184H22.2891V149.875H26.7891V184ZM38.4609 158.641L38.6016 161.828C40.5391 159.391 43.0703 158.172 46.1953 158.172C51.5547 158.172 54.2578 161.195 54.3047 167.242V184H49.9688V167.219C49.9531 165.391 49.5312 164.039 48.7031 163.164C47.8906 162.289 46.6172 161.852 44.8828 161.852C43.4766 161.852 42.2422 162.227 41.1797 162.977C40.1172 163.727 39.2891 164.711 38.6953 165.93V184H34.3594V158.641H38.4609ZM71.0156 180.93C72.5625 180.93 73.9141 180.461 75.0703 179.523C76.2266 178.586 76.8672 177.414 76.9922 176.008H81.0938C81.0156 177.461 80.5156 178.844 79.5938 180.156C78.6719 181.469 77.4375 182.516 75.8906 183.297C74.3594 184.078 72.7344 184.469 71.0156 184.469C67.5625 184.469 64.8125 183.32 62.7656 181.023C60.7344 178.711 59.7188 175.555 59.7188 171.555V170.828C59.7188 168.359 60.1719 166.164 61.0781 164.242C61.9844 162.32 63.2812 160.828 64.9688 159.766C66.6719 158.703 68.6797 158.172 70.9922 158.172C73.8359 158.172 76.1953 159.023 78.0703 160.727C79.9609 162.43 80.9688 164.641 81.0938 167.359H76.9922C76.8672 165.719 76.2422 164.375 75.1172 163.328C74.0078 162.266 72.6328 161.734 70.9922 161.734C68.7891 161.734 67.0781 162.531 65.8594 164.125C64.6562 165.703 64.0547 167.992 64.0547 170.992V171.812C64.0547 174.734 64.6562 176.984 65.8594 178.562C67.0625 180.141 68.7812 180.93 71.0156 180.93ZM85.7812 158.172C85.7812 153.141 86.75 148.656 88.6875 144.719C90.625 140.781 93.4062 137.734 97.0312 135.578C100.688 133.422 104.922 132.344 109.734 132.344C116.578 132.344 122.156 134.438 126.469 138.625C130.812 142.812 133.234 148.5 133.734 155.688L133.828 159.156C133.828 166.938 131.656 173.188 127.312 177.906C122.969 182.594 117.141 184.938 109.828 184.938C102.516 184.938 96.6719 182.594 92.2969 177.906C87.9531 173.219 85.7812 166.844 85.7812 158.781V158.172ZM99.3281 159.156C99.3281 163.969 100.234 167.656 102.047 170.219C103.859 172.75 106.453 174.016 109.828 174.016C113.109 174.016 115.672 172.766 117.516 170.266C119.359 167.734 120.281 163.703 120.281 158.172C120.281 153.453 119.359 149.797 117.516 147.203C115.672 144.609 113.078 143.312 109.734 143.312C106.422 143.312 103.859 144.609 102.047 147.203C100.234 149.766 99.3281 153.75 99.3281 159.156ZM139.219 171.109C139.219 167.156 140.133 164.016 141.961 161.688C143.789 159.344 146.211 158.172 149.227 158.172C152.32 158.172 154.734 159.266 156.469 161.453L156.68 158.641H160.641V183.391C160.641 186.672 159.664 189.258 157.711 191.148C155.773 193.039 153.164 193.984 149.883 193.984C148.055 193.984 146.266 193.594 144.516 192.812C142.766 192.031 141.43 190.961 140.508 189.602L142.758 187C144.617 189.297 146.891 190.445 149.578 190.445C151.688 190.445 153.328 189.852 154.5 188.664C155.688 187.477 156.281 185.805 156.281 183.648V181.469C154.547 183.469 152.18 184.469 149.18 184.469C146.211 184.469 143.805 183.273 141.961 180.883C140.133 178.492 139.219 175.234 139.219 171.109ZM143.578 171.602C143.578 174.461 144.164 176.711 145.336 178.352C146.508 179.977 148.148 180.789 150.258 180.789C152.992 180.789 155 179.547 156.281 177.062V165.484C154.953 163.062 152.961 161.852 150.305 161.852C148.195 161.852 146.547 162.672 145.359 164.312C144.172 165.953 143.578 168.383 143.578 171.602ZM171.305 158.641L171.445 161.828C173.383 159.391 175.914 158.172 179.039 158.172C184.398 158.172 187.102 161.195 187.148 167.242V184H182.812V167.219C182.797 165.391 182.375 164.039 181.547 163.164C180.734 162.289 179.461 161.852 177.727 161.852C176.32 161.852 175.086 162.227 174.023 162.977C172.961 163.727 172.133 164.711 171.539 165.93V184H167.203V158.641H171.305ZM198.398 184H194.062V158.641H198.398V184ZM193.711 151.914C193.711 151.211 193.922 150.617 194.344 150.133C194.781 149.648 195.422 149.406 196.266 149.406C197.109 149.406 197.75 149.648 198.188 150.133C198.625 150.617 198.844 151.211 198.844 151.914C198.844 152.617 198.625 153.203 198.188 153.672C197.75 154.141 197.109 154.375 196.266 154.375C195.422 154.375 194.781 154.141 194.344 153.672C193.922 153.203 193.711 152.617 193.711 151.914ZM211.242 152.5V158.641H215.977V161.992H211.242V177.719C211.242 178.734 211.453 179.5 211.875 180.016C212.297 180.516 213.016 180.766 214.031 180.766C214.531 180.766 215.219 180.672 216.094 180.484V184C214.953 184.312 213.844 184.469 212.766 184.469C210.828 184.469 209.367 183.883 208.383 182.711C207.398 181.539 206.906 179.875 206.906 177.719V161.992H202.289V158.641H206.906V152.5H211.242ZM220.875 158.172C220.875 153.141 221.844 148.656 223.781 144.719C225.719 140.781 228.5 137.734 232.125 135.578C235.781 133.422 240.016 132.344 244.828 132.344C251.672 132.344 257.25 134.438 261.562 138.625C265.906 142.812 268.328 148.5 268.828 155.688L268.922 159.156C268.922 166.938 266.75 173.188 262.406 177.906C258.062 182.594 252.234 184.938 244.922 184.938C237.609 184.938 231.766 182.594 227.391 177.906C223.047 173.219 220.875 166.844 220.875 158.781V158.172ZM234.422 159.156C234.422 163.969 235.328 167.656 237.141 170.219C238.953 172.75 241.547 174.016 244.922 174.016C248.203 174.016 250.766 172.766 252.609 170.266C254.453 167.734 255.375 163.703 255.375 158.172C255.375 153.453 254.453 149.797 252.609 147.203C250.766 144.609 248.172 143.312 244.828 143.312C241.516 143.312 238.953 144.609 237.141 147.203C235.328 149.766 234.422 153.75 234.422 159.156Z" fill="white"/>
<g clip-path="url(#clip1)">
<path d="M248.677 80.3557C246.989 72.9426 244.528 63.4242 241.237 53.8201C237.091 41.7229 232.461 31.985 227.474 24.8773C220.166 14.463 211.732 9.18286 202.405 9.18286C191.048 9.18286 186.662 13.6178 183.143 18.1603C182.562 18.9098 182.014 19.6176 181.44 20.2159L181.367 20.292C180.377 21.308 178.861 21.891 177.207 21.891C175.553 21.8906 174.038 21.308 173.042 20.2865L172.981 20.2225C172.4 19.618 171.852 18.9102 171.271 18.1611C167.753 13.6186 163.366 9.18365 152.009 9.18365C142.682 9.18365 134.248 14.4642 126.941 24.8781C121.954 31.9857 117.323 41.7236 113.178 53.8209C109.905 63.3708 107.453 72.8374 105.766 80.232L248.677 80.3557Z" fill="white"/>
<path d="M260.455 117.817L93.5182 117.682C82.6347 117.674 73.4202 111.051 70.2754 101.911C69.0984 98.4896 71.8093 94.9875 75.6759 94.9906L278.33 95.1539C282.195 95.1571 284.899 98.6616 283.718 102.081C280.562 111.217 271.338 117.826 260.455 117.817Z" fill="white"/>
</g>
</g>
<defs>
<clipPath id="clip0">
<rect width="296" height="200" fill="white"/>
</clipPath>
<clipPath id="clip1">
<rect width="214" height="201" fill="white" transform="translate(70 -37)"/>
</clipPath>
</defs>
</svg>
