<svg width="30" height="30" viewBox="0 0 30 30" fill="none" xmlns="http://www.w3.org/2000/svg">
<g clip-path="url(#clip0)">
<path d="M29.0625 11.25H17.1875C16.67 11.25 16.25 11.67 16.25 12.1875C16.25 12.705 16.67 13.125 17.1875 13.125H29.0625C29.58 13.125 30 12.705 30 12.1875C30 11.67 29.58 11.25 29.0625 11.25Z" fill="black"/>
<path d="M29.0625 15H17.1875C16.67 15 16.25 15.42 16.25 15.9375C16.25 16.455 16.67 16.875 17.1875 16.875H29.0625C29.58 16.875 30 16.455 30 15.9375C30 15.42 29.58 15 29.0625 15Z" fill="black"/>
<path d="M29.0625 18.75H17.1875C16.67 18.75 16.25 19.17 16.25 19.6875C16.25 20.205 16.67 20.625 17.1875 20.625H29.0625C29.58 20.625 30 20.205 30 19.6875C30 19.17 29.58 18.75 29.0625 18.75Z" fill="black"/>
<path d="M29.0625 22.5H17.1875C16.67 22.5 16.25 22.92 16.25 23.4375C16.25 23.955 16.67 24.375 17.1875 24.375H29.0625C29.58 24.375 30 23.955 30 23.4375C30 22.92 29.58 22.5 29.0625 22.5Z" fill="black"/>
<path d="M29.0625 26.25H17.1875C16.67 26.25 16.25 26.67 16.25 27.1875C16.25 27.705 16.67 28.125 17.1875 28.125H29.0625C29.58 28.125 30 27.705 30 27.1875C30 26.67 29.58 26.25 29.0625 26.25Z" fill="black"/>
<path d="M29.0625 0H0.9375C0.42 0 0 0.42 0 0.9375C0 1.455 0.42 1.875 0.9375 1.875H29.0625C29.58 1.875 30 1.455 30 0.9375C30 0.42 29.58 0 29.0625 0Z" fill="black"/>
<path d="M29.0625 3.75H0.9375C0.42 3.75 0 4.17 0 4.6875C0 5.205 0.42 5.625 0.9375 5.625H29.0625C29.58 5.625 30 5.205 30 4.6875C30 4.17 29.58 3.75 29.0625 3.75Z" fill="black"/>
<path d="M29.0625 7.5H0.9375C0.42 7.5 0 7.92 0 8.4375C0 8.955 0.42 9.375 0.9375 9.375H29.0625C29.58 9.375 30 8.955 30 8.4375C30 7.92 29.58 7.5 29.0625 7.5Z" fill="black"/>
<path d="M2.1875 28.125H11.5625C12.7688 28.125 13.75 27.1438 13.75 25.9375V13.4375C13.75 12.2313 12.7688 11.25 11.5625 11.25H2.1875C0.98125 11.25 0 12.2313 0 13.4375V25.9375C0 27.1438 0.98125 28.125 2.1875 28.125Z" fill="black"/>
</g>
<defs>
<clipPath id="clip0">
<rect width="30" height="30" fill="white"/>
</clipPath>
</defs>
</svg>
