<svg width="30" height="30" viewBox="0 0 30 30" fill="none" xmlns="http://www.w3.org/2000/svg">
<g clip-path="url(#clip0)">
<path d="M28.5036 25.8943H8.44273C7.61593 25.8943 6.9458 25.2241 6.9458 24.3973C6.9458 23.5705 7.61593 22.9004 8.44273 22.9004H28.5031C29.3299 22.9004 30 23.5705 30 24.3973C30 25.2241 29.3304 25.8943 28.5036 25.8943Z" fill="black"/>
<path d="M28.5036 16.4978H8.44273C7.61593 16.4978 6.9458 15.8276 6.9458 15.0008C6.9458 14.174 7.61593 13.5039 8.44273 13.5039H28.5031C29.3299 13.5039 30 14.174 30 15.0008C30.0005 15.8276 29.3304 16.4978 28.5036 16.4978Z" fill="black"/>
<path d="M28.5036 7.10128H8.44273C7.61593 7.10128 6.9458 6.43116 6.9458 5.60435C6.9458 4.77755 7.61593 4.10742 8.44273 4.10742H28.5031C29.3299 4.10742 30 4.77755 30 5.60435C30 6.43116 29.3304 7.10128 28.5036 7.10128Z" fill="black"/>
<path d="M2.01038 7.73072C3.12068 7.73072 4.02076 6.83064 4.02076 5.72034C4.02076 4.61004 3.12068 3.70996 2.01038 3.70996C0.900077 3.70996 0 4.61004 0 5.72034C0 6.83064 0.900077 7.73072 2.01038 7.73072Z" fill="black"/>
<path d="M2.01038 17.011C3.12068 17.011 4.02076 16.1109 4.02076 15.0006C4.02076 13.8903 3.12068 12.9902 2.01038 12.9902C0.900077 12.9902 0 13.8903 0 15.0006C0 16.1109 0.900077 17.011 2.01038 17.011Z" fill="black"/>
<path d="M2.01038 26.2913C3.12068 26.2913 4.02076 25.3912 4.02076 24.2809C4.02076 23.1706 3.12068 22.2705 2.01038 22.2705C0.900077 22.2705 0 23.1706 0 24.2809C0 25.3912 0.900077 26.2913 2.01038 26.2913Z" fill="black"/>
</g>
<defs>
<clipPath id="clip0">
<rect width="30" height="30" fill="white"/>
</clipPath>
</defs>
</svg>
