<svg width="30" height="30" viewBox="0 0 30 30" fill="none" xmlns="http://www.w3.org/2000/svg">
<path d="M4.58916 3.54102C4.58836 3.54102 4.58745 3.54102 4.58664 3.54102C4.3029 3.54102 4.03603 3.65162 3.83452 3.85263C3.63078 4.05587 3.51855 4.32647 3.51855 4.61455V20.7121C3.51855 21.3024 4.00068 21.7838 4.59341 21.7853C7.0922 21.7913 11.2787 22.3121 14.1668 25.3344V8.4879C14.1668 8.2878 14.1157 8.09982 14.0192 7.94426C11.6488 4.12688 7.09362 3.54687 4.58916 3.54102Z" fill="black"/>
<path d="M26.4816 20.7112V4.61358C26.4816 4.3255 26.3694 4.05489 26.1657 3.85166C25.9641 3.65065 25.6971 3.54004 25.4136 3.54004C25.4127 3.54004 25.4118 3.54004 25.411 3.54004C22.9066 3.546 18.3515 4.126 15.981 7.94339C15.8845 8.09894 15.8335 8.28692 15.8335 8.48703V25.3334C18.7216 22.3111 22.9081 21.7903 25.4069 21.7843C25.9995 21.7828 26.4816 21.3014 26.4816 20.7112Z" fill="black"/>
<path d="M28.9265 7.25293H28.1481V20.7117C28.1481 22.2188 26.9201 23.4478 25.4106 23.4516C23.2911 23.4566 19.7963 23.8711 17.3213 26.2136C21.6019 25.1655 26.1144 25.8468 28.6862 26.4329C29.0073 26.506 29.3391 26.4305 29.5964 26.2254C29.8527 26.0209 29.9998 25.7151 29.9998 25.3869V8.32627C29.9999 7.73445 29.5183 7.25293 28.9265 7.25293Z" fill="black"/>
<path d="M1.85172 20.7117V7.25293H1.07334C0.481618 7.25293 0 7.73445 0 8.32627V25.3866C0 25.7149 0.147071 26.0206 0.403436 26.2251C0.660507 26.4301 0.992024 26.5059 1.31364 26.4326C3.88537 25.8464 8.39801 25.1652 12.6784 26.2133C10.2035 23.8709 6.70871 23.4565 4.58921 23.4515C3.07981 23.4478 1.85172 22.2188 1.85172 20.7117Z" fill="black"/>
</svg>
